{"title":"[MARATHI] Zopa Ata Gupchup - Drama x264 MP3 [TMB]","uid":8917974,"size":551252910,"categoryP":"video","categoryS":"movies","magnet":"?xt=urn:btih:a058c15b49ecbc350f77b9ed11f7e5199485534e&amp;dn=%5BMARATHI%5D+Zopa+Ata+Gupchup+-+Drama+x264+MP3+%5BTMB%5D&amp;tr=udp%3A%2F%2Ftracker.openbittorrent.com%3A80&amp;tr=udp%3A%2F%2Fopen.demonii.com%3A1337&amp;tr=udp%3A%2F%2Ftracker.coppersurfer.tk%3A6969&amp;tr=udp%3A%2F%2Fexodus.desync.com%3A6969","seeders":0,"leechers":3,"uploader":"SJonam","files":2,"time":1379190575,"description":" &lt;a href=&quot;http://desibbrg.org/images/15651891654054630733.jpg&quot; rel=&quot;nofollow&quot; target=&quot;_NEW&quot;&gt;http://desibbrg.org/images/15651891654054630733.jpg&lt;/a&gt; &lt;a href=&quot;\nhttp://desibbrg.org/images/22547798377160277845.jpg&quot; rel=&quot;nofollow&quot; target=&quot;_NEW&quot;&gt;\nhttp://desibbrg.org/images/22547798377160277845.jpg&lt;/a&gt; &lt;a href=&quot;\nhttp://desibbrg.org/images/50689824335918110198.jpg&quot; rel=&quot;nofollow&quot; target=&quot;_NEW&quot;&gt;\nhttp://desibbrg.org/images/50689824335918110198.jpg&lt;/a&gt; &lt;a href=&quot;\nhttp://desibbrg.org/images/18640887681878502550.jpg&quot; rel=&quot;nofollow&quot; target=&quot;_NEW&quot;&gt;\nhttp://desibbrg.org/images/18640887681878502550.jpg&lt;/a&gt; &lt;a href=&quot;\nhttp://desibbrg.org/images/39027450788297875612.jpg&quot; rel=&quot;nofollow&quot; target=&quot;_NEW&quot;&gt;\nhttp://desibbrg.org/images/39027450788297875612.jpg&lt;/a&gt; &lt;a href=&quot;\nhttp://desibbrg.org/images/19422290225368914475.jpg&quot; rel=&quot;nofollow&quot; target=&quot;_NEW&quot;&gt;\nhttp://desibbrg.org/images/19422290225368914475.jpg&lt;/a&gt;\n\nInfo - \nDirector: Kishore Saav\n\nActors: Prasad Oka,Ashwari Joshi, Anand Abayankar, Ashok Shinde,\n\nSynopsis:Zopa Ata Gupchup is marathi comedy play with fantastic actors like Prasad Oka and Ashwari Joshi, this Play is truly a laughter riot with twist and turns , ups and downs just like roller coster...Enjoy\n\nMedia Info - \nGeneral\nComplete name                  : Zopa Ata Gupchup - Drama x264 MP3 [TMB].avi\nFormat                         : AVI\nFormat/Info                    : Audio Video Interleave\nFile size                      : 521 MiB\nDuration                       : 1h 47mn\nOverall bit rate               : 678 Kbps\nWriting application            : Lavf54.63.104\n\nVideo\nFormat                         : AVC\nFormat/Info                    : Advanced Video Codec\nFormat profile                 : &lt;a class=&quot;__cf_email__&quot; href=&quot;/cdn-cgi/l/email-protection&quot; data-cfemail=&quot;7a371b13143a3649544a&quot;&gt;[email&amp;#160;protected]&lt;/a&gt;&lt;script cf-hash='f9e31' type=&quot;text/javascript&quot;&gt;\n/* &lt;![CDATA[ */!function(){try{var t=&quot;currentScript&quot;in document?document.currentScript:function(){for(var t=document.getElementsByTagName(&quot;script&quot;),e=t.length;e--;)if(t[e].getAttribute(&quot;cf-hash&quot;))return t[e]}();if(t&amp;&amp;t.previousSibling){var e,r,n,i,c=t.previousSibling,a=c.getAttribute(&quot;data-cfemail&quot;);if(a){for(e=&quot;&quot;,r=parseInt(a.substr(0,2),16),n=2;a.length-n;n+=2)i=parseInt(a.substr(n,2),16)^r,e+=String.fromCharCode(i);e=document.createTextNode(e),c.parentNode.replaceChild(e,c)}}}catch(u){}}();/* ]]&gt; */&lt;/script&gt;\nFormat settings, CABAC         : Yes\nFormat settings, ReFrames      : 1 frame\nCodec ID                       : H264\nDuration                       : 1h 47mn\nBit rate                       : 411 Kbps\nWidth                          : 656 pixels\nHeight                         : 480 pixels\nDisplay aspect ratio           : 4:3\nFrame rate mode                : Variable\nFrame rate                     : 25.000 fps\nColor space                    : YUV\nChroma subsampling             : 4:2:0\nBit depth                      : 8 bits\nScan type                      : Progressive\nBits/(Pixel*Frame)             : 0.052\nStream size                    : 315 MiB (60%)\nWriting library                : x264 core 129\n\nAudio\nFormat                         : MPEG Audio\nFormat version                 : Version 1\nFormat profile                 : Layer 3\nMode                           : Joint stereo\nMode extension                 : MS Stereo\nCodec ID                       : 55\nCodec ID/Hint                  : MP3\nDuration                       : 1h 47mn\nBit rate mode                  : Constant\nBit rate                       : 256 Kbps\nChannel count                  : 2 channels\nSampling rate                  : 44.1 KHz\nCompression mode               : Lossy\nStream size                    : 197 MiB (38%)\nAlignment                      : Aligned on interleaves\nInterleave, duration           : 26 ms (0.65 video frame)\nWriting library                : LAME3.99.5\n\nSample in Torrent...\n\nRipper : Manojvb\n\nSeeding will be very slow for first day...\n\n &lt;a href=&quot;\nhttp://desibbrg.org/images/48627592875446061657.gif&quot; rel=&quot;nofollow&quot; target=&quot;_NEW&quot;&gt;\nhttp://desibbrg.org/images/48627592875446061657.gif&lt;/a&gt;","torrent":{"xt":"urn:btih:a058c15b49ecbc350f77b9ed11f7e5199485534e","amp;dn":"%5BMARATHI%5D+Zopa+Ata+Gupchup+-+Drama+x264+MP3+%5BTMB%5D","amp;tr":["udp%3A%2F%2Ftracker.openbittorrent.com%3A80","udp%3A%2F%2Fopen.demonii.com%3A1337","udp%3A%2F%2Ftracker.coppersurfer.tk%3A6969","udp%3A%2F%2Fexodus.desync.com%3A6969"],"infoHash":"a058c15b49ecbc350f77b9ed11f7e5199485534e","infoHashBuffer":{"type":"Buffer","data":[160,88,193,91,73,236,188,53,15,119,185,237,17,247,229,25,148,133,83,78]},"announce":[],"urlList":[]}}